<svg xmlns="http://www.w3.org/2000/svg"  viewBox="0 0 24 24" width="24px" height="24px" baseProfile="basic"><path d="M12,1C5.935,1,1,5.935,1,12c0,2.96,1.154,5.738,3.25,7.821C6.313,21.873,9.042,23,11.937,23	C18.057,23.024,23,18.087,23,12C23,5.935,18.065,1,12,1z" opacity=".35"/><circle cx="12" cy="12" r="6" fill="#fff"/><circle cx="12" cy="12" r="2"/><path d="M12,15c-1.654,0-3-1.346-3-3s1.346-3,3-3s3,1.346,3,3S13.654,15,12,15z M12,11c-0.552,0-1,0.448-1,1s0.448,1,1,1 s1-0.448,1-1S12.552,11,12,11z"/></svg>